# xmcd
# 
# Track frame offsets:
#     150
#     16942
#     31437
#     48698
#     64628
#     80364
#     99520
#     115537
#     133217
#     146566
#     162870
#     178902
#     196437
#     213367
#     229937
#     246312
#     261319
#     278176
#     293564
#     308221
# 
# Disc length: 4307
# 
# Revision: 2
# Processed by: cddbd v1.5.2PL0 Copyright (c) Steve Scherf et al.
# Submitted via: fre:ac v1.0.31
# 
DISCID=2810d114
DTITLE=Andrea Berg - 25 Jahre Abenteuer Leben
DYEAR=0
DGENRE=Schlager
TTITLE0=Ich werde lächeln wenn Du gehst (25 Jahre Remix)
TTITLE1=Der letzte Tag im Paradies (Akustik Version)
TTITLE2=Du hast mich tausendmal belogen (Neuaufnahme)
TTITLE3=Ich liebe das Leben (Akustik Version)
TTITLE4=Sternenträumer (Akustik Version)
TTITLE5=Feuervogel
TTITLE6=Die Gefühle haben Schweigepflicht (Neuaufnahme)
TTITLE7=Schenk' mir einen Stern (25 Jahre Remix)
TTITLE8=Kilimandscharo (Akustik Version)
TTITLE9=Diese Nacht ist jede Sünde wert (Dance Mix)
TTITLE10=Sag` mir doch (Akustik Version)
TTITLE11=Im nächsten Leben
TTITLE12=Das kann kein Zufall sein (25 Jahre Remix)
TTITLE13=Das Gefühl (25 Jahre Remix)
TTITLE14=Und wenn ich geh' (Orchester Version)
TTITLE15=Flieg' mit mir fort (25 Jahre Remix)
TTITLE16=Du kannst noch nicht 'mal richtig lügen (25 Jahre Remix)
TTITLE17=Solang' die Erde sich dreht
TTITLE18=Da wo ein Engel die Erde berührt (Neuaufnahme)
TTITLE19=Ja, ich will
EXTD=
EXTT0=
EXTT1=
EXTT2=
EXTT3=
EXTT4=
EXTT5=
EXTT6=
EXTT7=
EXTT8=
EXTT9=
EXTT10=
EXTT11=
EXTT12=
EXTT13=
EXTT14=
EXTT15=
EXTT16=
EXTT17=
EXTT18=
EXTT19=
PLAYORDER=
